:SAMPLES-PER-SECOND 30
:FULLY-SPECIFIED
:DEGREES
1
root  23.7746 39.6636 21.3586 -47.4493 -88.5774 45.463
RightUpLeg  -3.51404 -9.46962 -11.7892
RightLeg  10.9042 3.14919 0.140406
RightFoot  -6.97426 -0.375311 8.58719
RightToes  2.32829e-010 0 -3.6325e-017
Spine  5.83299 0.507279 0.221301
Spine1  6.42648 1.28831 -4.34967
HEad  -10.2382 -10.8957 -3.9292
LeftShoulder1  0.167769 3.02396 -29.0257
LeftArm  -3.77806 0.493466 -40.7344
LeftForeArm  28.2896 -8.88802 -8.34037
LeftHand  -0.0349534 2.7492 0.904557
RightShoulder  -0.734346 -5.58963 28.5202
RightArm  23.6483 1.63454 54.2871
RightForeArm  11.8028 16.2613 6.26427
RightHand  -0.149904 2.34058 -2.43434
LeftUpLeg  -0.419242 7.9142 1.72224
LeftLeg  8.15492 -1.34732 -1.40443
LeftFoot  -5.11445 -0.0331256 1.29582
LeftToes  -3.54706e-010 1.16038e-010 5.28031e-012
2
root  23.7488 39.6514 21.4432 -47.9851 -88.4772 45.7812
RightUpLeg  -2.61806 -9.19792 -10.5931
RightLeg  11.0573 3.85523 0.425958
RightFoot  -7.58861 -0.345397 8.95141
RightToes  2.32829e-010 0 -3.6325e-017
Spine  5.27035 0.537577 -0.658668
Spine1  7.14114 1.10794 -3.57196
HEad  -10.3269 -10.3422 -4.44856
LeftShoulder1  0.0764948 3.28915 -29.6342
LeftArm  -3.54167 -0.292677 -39.7541
LeftForeArm  28.8176 -8.5614 -8.53856
LeftHand  -0.0240382 3.09204 0.527891
RightShoulder  -0.665199 -5.43743 27.7087
RightArm  23.671 1.52507 54.6319
RightForeArm  9.42446 16.6155 6.18199
RightHand  -0.187807 2.85128 -2.86795
LeftUpLeg  -0.120312 7.92633 1.56546
LeftLeg  8.14153 -1.36566 -1.42573
LeftFoot  -5.24074 -0.0388231 1.38439
LeftToes  -3.54706e-010 1.16038e-010 5.28031e-012
3
root  23.7219 39.6398 21.5603 -73.0458 -88.4039 70.7606
RightUpLeg  -1.94195 -8.8069 -9.33716
RightLeg  11.1454 4.88167 0.733428
RightFoot  -7.91069 -0.291264 7.89389
RightToes  2.32829e-010 0 -3.6325e-017
Spine  4.83441 0.732078 -0.301777
Spine1  7.12938 1.65071 -4.8516
HEad  -9.7261 -10.5124 -4.73215
LeftShoulder1  0.156539 3.05707 -28.9883
LeftArm  -4.0616 -0.335009 -39.6586
LeftForeArm  29.5906 -8.27512 -8.46708
LeftHand  -0.0315375 4.7902 1.0433
RightShoulder  -0.719464 -5.56312 28.2719
RightArm  24.4709 1.40218 53.9581
RightForeArm  8.39884 17.1404 6.03326
RightHand  -0.158454 2.75333 -2.47346
LeftUpLeg  0.24205 7.72259 0.944455
LeftLeg  7.82167 -0.606482 -1.42859
LeftFoot  -5.22373 -0.0542028 1.58072
LeftToes  -3.54706e-010 1.16038e-010 5.28031e-012
4
root  23.6564 39.7315 21.6744 -78.9567 -88.3171 76.6715
RightUpLeg  -1.13662 -7.80372 -7.8044
RightLeg  10.4819 3.14582 -0.0423871
RightFoot  -7.46805 -0.149311 2.9571
RightToes  2.32829e-010 0 -3.6325e-017
Spine  4.36297 0.782018 0.0871145
Spine1  6.82378 1.74954 -4.61456
HEad  -8.79892 -10.2146 -5.69361
LeftShoulder1  0.0375343 3.40021 -29.8486
LeftArm  -4.71362 -0.605576 -38.9446
LeftForeArm  29.5885 -7.78005 -8.3121
LeftHand  -0.0337725 4.16635 1.19866
RightShoulder  -0.656909 -5.41063 27.7568
RightArm  24.8336 1.2194 53.9265
RightForeArm  8.83726 16.8594 6.20178
RightHand  -0.179208 2.6583 -2.82739
LeftUpLeg  1.13788 7.31959 0.582533
LeftLeg  6.23058 -0.0929368 -1.32683
LeftFoot  -4.52358 -0.070834 1.64718
LeftToes  -3.54706e-010 1.16038e-010 5.28031e-012
5
root  23.5723 39.8137 21.7758 -87.3338 -88.343 84.7561
RightUpLeg  0.0207589 -5.67273 -6.88678
RightLeg  8.86749 0.71772 -1.79089
RightFoot  -6.02459 -0.150539 2.32109
RightToes  2.32829e-010 0 -3.6325e-017
Spine  3.90568 0.773712 1.2115
Spine1  6.9574 2.01521 -5.3578
HEad  -7.81863 -9.46957 -6.69038
LeftShoulder1  0.0334528 3.41112 -29.9967
LeftArm  -6.16265 -0.541629 -39.1859
LeftForeArm  29.3964 -7.20919 -7.80497
LeftHand  -0.0300122 5.11684 1.76857
RightShoulder  -0.657241 -5.4032 27.9039
RightArm  24.4003 1.88369 53.647
RightForeArm  11.0827 15.3954 6.82377
RightHand  -0.139638 1.56238 -2.33626
LeftUpLeg  2.31715 7.05044 0.375897
LeftLeg  4.76809 0.410432 -1.18886
LeftFoot  -3.939 -0.0827442 1.64992
LeftToes  -3.54706e-010 1.16038e-010 5.28031e-012
6
root  23.4976 39.8279 21.867 -101.433 -88.4523 98.7074
RightUpLeg  0.539043 -6.31603 -7.08615
RightLeg  8.09267 1.92279 -1.63762
RightFoot  -5.3344 -0.211867 3.35097
RightToes  2.32829e-010 0 -3.6325e-017
Spine  3.38479 0.805147 2.46423
Spine1  7.0192 2.2926 -6.39537
HEad  -7.33286 -9.4234 -7.3946
LeftShoulder1  0.00328894 3.49486 -30.1083
LeftArm  -6.46422 -0.0820886 -39.8743
LeftForeArm  28.0502 -7.12325 -7.63117
LeftHand  -0.0236395 5.64255 2.26107
RightShoulder  -0.669924 -5.43176 28.0583
RightArm  22.6923 2.71944 53.0783
RightForeArm  15.2873 13.4042 7.46863
RightHand  0.0331581 0.903323 0.496595
LeftUpLeg  2.64749 7.02781 0.336428
LeftLeg  4.7302 0.868061 -1.05634
LeftFoot  -4.05671 -0.0884274 1.76834
LeftToes  -3.54706e-010 1.16038e-010 5.28031e-012
7
root  23.4112 39.82 21.933 -125.115 -88.4887 122.347
RightUpLeg  1.1852 -7.86037 -7.62706
RightLeg  7.00444 4.14678 -0.731034
RightFoot  -5.04294 -0.298733 4.80058
RightToes  2.32829e-010 0 -3.6325e-017
Spine  2.6944 1.01115 3.30611
Spine1  7.21355 2.56929 -6.84832
HEad  -6.88002 -9.60877 -7.71931
LeftShoulder1  0.0453598 3.37675 -29.7086
LeftArm  -6.53569 0.858848 -41.5538
LeftForeArm  27.8729 -7.05004 -7.55677
LeftHand  -0.022123 5.6932 2.34007
RightShoulder  -0.696093 -5.50662 28.0765
RightArm  21.2787 3.52585 52.2586
RightForeArm  16.3157 11.6795 8.05123
RightHand  -0.0313202 1.73896 -0.678313
LeftUpLeg  2.73583 7.12087 0.46262
LeftLeg  5.06271 1.30906 -0.909228
LeftFoot  -4.38798 -0.0862145 1.82264
LeftToes  -3.54706e-010 1.16038e-010 5.28031e-012
8
root  23.331 39.8553 21.9865 -140.138 -88.436 137.294
RightUpLeg  2.10487 -9.15344 -7.97255
RightLeg  5.48553 5.68795 -0.106748
RightFoot  -4.17939 -0.334521 4.89533
RightToes  2.32829e-010 0 -3.6325e-017
Spine  1.92765 1.06314 3.73801
Spine1  7.59436 2.57774 -6.60981
HEad  -6.38943 -9.32679 -7.44905
LeftShoulder1  0.135929 3.1202 -29.2731
LeftArm  -4.82436 1.29165 -42.9367
LeftForeArm  28.6834 -7.01762 -8.36184
LeftHand  -0.018067 5.73608 2.68141
RightShoulder  -0.73666 -5.60969 28.3275
RightArm  19.6686 4.22126 51.3573
RightForeArm  17.5776 10.2587 8.288
RightHand  -0.0412645 1.02178 -0.852842
LeftUpLeg  3.17062 7.03867 0.535232
LeftLeg  4.65415 1.77841 -0.727737
LeftFoot  -4.35201 -0.0884978 1.88156
LeftToes  -3.54706e-010 1.16038e-010 5.28031e-012
9
root  23.2627 39.907 21.9831 -153.025 -88.4478 150.097
RightUpLeg  3.08243 -9.09726 -7.61567
RightLeg  3.79218 5.68041 -0.317331
RightFoot  -3.28848 -0.337722 4.47588
RightToes  2.32829e-010 0 -3.6325e-017
Spine  0.974597 1.01453 3.34063
Spine1  8.4068 2.25745 -5.37469
HEad  -6.23651 -9.26228 -7.05685
LeftShoulder1  0.162409 3.04355 -29.1557
LeftArm  -2.01142 0.322735 -43.9256
LeftForeArm  34.5692 -7.38151 -9.46638
LeftHand  -0.0344812 3.71987 1.06038
RightShoulder  -0.674833 -5.44243 28.1252
RightArm  18.2119 4.66167 50.8625
RightForeArm  17.4535 9.33563 8.28203
RightHand  -0.0893701 0.887518 -1.74125
LeftUpLeg  3.72793 6.91155 0.705879
LeftLeg  3.9417 2.12473 -0.461597
LeftFoot  -4.14304 -0.0799304 1.66838
LeftToes  -3.54706e-010 1.16038e-010 5.28031e-012
10
root  23.2163 39.9493 21.9335 -154.084 -88.7503 150.853
RightUpLeg  4.28823 -9.1178 -7.43194
RightLeg  2.27965 5.38345 -0.415296
RightFoot  -2.56401 -0.351166 4.34222
RightToes  2.32829e-010 0 -3.6325e-017
Spine  0.322235 0.773534 2.95429
Spine1  9.32425 1.86031 -4.60077
HEad  -6.18392 -8.22267 -6.79972
LeftShoulder1  0.157566 3.05471 -28.9638
LeftArm  0.163306 -1.73789 -45.0852
LeftForeArm  39.5403 -9.25217 -9.33593
LeftHand  0.0142418 2.63266 -1.28559
RightShoulder  -0.655588 -5.39468 27.9575
RightArm  16.2267 4.60152 50.8246
RightForeArm  16.4923 8.89794 7.91557
RightHand  -0.169883 1.08025 -3.15338
LeftUpLeg  4.41024 6.7824 0.868625
LeftLeg  3.27508 1.98282 -0.215194
LeftFoot  -3.79442 -0.0830648 1.60391
LeftToes  -3.54706e-010 1.16038e-010 5.28031e-012
11
root  23.2211 39.9689 21.8689 -144.723 -89.0294 141.166
RightUpLeg  5.11611 -9.1898 -7.45054
RightLeg  1.46774 5.09689 -0.443304
RightFoot  -2.2646 -0.371321 4.48004
RightToes  2.32829e-010 0 -3.6325e-017
Spine  0.36302 0.553108 2.55857
Spine1  9.55614 1.50963 -4.03505
HEad  -6.44943 -7.7706 -6.17072
LeftShoulder1  0.118906 3.16604 -29.0898
LeftArm  7.6609 -4.63997 -45.7708
LeftForeArm  33.095 -13.939 -8.2729
LeftHand  0.0143493 2.03794 -0.914231
RightShoulder  -0.597557 -5.25209 27.4382
RightArm  14.8365 3.96411 51.0495
RightForeArm  15.2209 8.77133 7.56992
RightHand  -0.216841 1.64228 -3.78444
LeftUpLeg  4.88292 6.74818 0.937052
LeftLeg  2.93336 1.7303 -0.137527
LeftFoot  -3.55131 -0.0867732 1.59909
LeftToes  -3.54706e-010 1.16038e-010 5.28031e-012
